# xmcd
# 
# Track frame offsets:
#     150
#     21177
#     36647
#     55160
#     71717
#     90582
#     110500
#     127130
#     141010
# 
# Disc length: 2076
# 
# Revision: 13
# Processed by: cddbd v1.5.2PL0 Copyright (c) Steve Scherf et al.
# Submitted via: fre:ac v1.0.17
# 
DISCID=84081a09
DTITLE=Aerosmith - Rocks
DYEAR=1976
DGENRE=Classic Rock
TTITLE0=Back in the Saddle
TTITLE1=Last Child
TTITLE2=Rats in the Cellar
TTITLE3=Combination
TTITLE4=Sick As A Dog
TTITLE5=Nobody's Fault
TTITLE6=Get the Lead Out
TTITLE7=Lick and A Promise
TTITLE8=Home Tonight
EXTD=
EXTT0=
EXTT1=
EXTT2=
EXTT3=
EXTT4=
EXTT5=
EXTT6=
EXTT7=
EXTT8=
PLAYORDER=
